<svg width="239" height="122" viewBox="0 0 239 122" fill="none" xmlns="http://www.w3.org/2000/svg">
    <rect width="239" height="122" fill="transparent"/>
    <path id="icon" d="M14.7457 116H0.0653412L42.5256 0.363633H56.9801L99.4403 116H84.7599L50.2045 18.6577H49.3011L14.7457 116ZM20.1662 70.8295H79.3395V83.2514H20.1662V70.8295ZM117.452 116V0.363633H131.455V103.578H185.208V116H117.452ZM199.292 116.345C198.358 116.345 197.511 116.169 196.751 115.818C195.99 115.46 195.386 114.945 194.939 114.274C194.491 113.597 194.267 112.778 194.267 111.82C194.267 110.976 194.434 110.292 194.766 109.768C195.098 109.237 195.543 108.822 196.099 108.521C196.655 108.221 197.268 107.997 197.94 107.85C198.617 107.697 199.298 107.575 199.982 107.486C200.877 107.371 201.602 107.284 202.158 107.227C202.721 107.163 203.13 107.058 203.386 106.911C203.648 106.763 203.779 106.508 203.779 106.143V106.067C203.779 105.121 203.52 104.386 203.002 103.862C202.491 103.337 201.714 103.075 200.672 103.075C199.592 103.075 198.745 103.312 198.131 103.785C197.518 104.258 197.086 104.763 196.837 105.3L194.689 104.533C195.073 103.638 195.584 102.941 196.223 102.442C196.869 101.937 197.572 101.586 198.333 101.388C199.1 101.183 199.854 101.081 200.596 101.081C201.069 101.081 201.612 101.138 202.225 101.254C202.846 101.362 203.443 101.589 204.018 101.934C204.6 102.279 205.083 102.8 205.466 103.497C205.85 104.194 206.042 105.127 206.042 106.297V116H203.779V114.006H203.664C203.51 114.325 203.255 114.667 202.897 115.032C202.539 115.396 202.063 115.706 201.468 115.962C200.874 116.217 200.148 116.345 199.292 116.345ZM199.637 114.312C200.532 114.312 201.286 114.137 201.9 113.785C202.52 113.434 202.986 112.98 203.299 112.424C203.619 111.868 203.779 111.283 203.779 110.669V108.598C203.683 108.713 203.472 108.819 203.146 108.914C202.826 109.004 202.456 109.084 202.034 109.154C201.618 109.218 201.212 109.276 200.816 109.327C200.426 109.371 200.11 109.41 199.867 109.442C199.279 109.518 198.729 109.643 198.218 109.816C197.713 109.982 197.304 110.234 196.99 110.573C196.684 110.906 196.53 111.359 196.53 111.935C196.53 112.721 196.821 113.315 197.403 113.718C197.991 114.114 198.735 114.312 199.637 114.312ZM212.434 107.141V116H210.172V101.273H212.358V103.574H212.549C212.895 102.826 213.419 102.225 214.122 101.771C214.825 101.311 215.733 101.081 216.845 101.081C217.842 101.081 218.715 101.286 219.462 101.695C220.21 102.097 220.792 102.711 221.207 103.536C221.623 104.354 221.831 105.389 221.831 106.642V116H219.568V106.795C219.568 105.638 219.267 104.737 218.667 104.092C218.066 103.44 217.241 103.114 216.193 103.114C215.471 103.114 214.825 103.27 214.256 103.583C213.694 103.897 213.249 104.354 212.923 104.955C212.597 105.555 212.434 106.284 212.434 107.141ZM231.91 121.83C230.817 121.83 229.877 121.689 229.091 121.408C228.305 121.133 227.65 120.768 227.126 120.315C226.608 119.867 226.196 119.388 225.889 118.876L227.691 117.611C227.896 117.879 228.155 118.186 228.468 118.531C228.781 118.883 229.21 119.186 229.753 119.442C230.303 119.704 231.022 119.835 231.91 119.835C233.099 119.835 234.08 119.548 234.854 118.972C235.627 118.397 236.014 117.496 236.014 116.268V113.277H235.822C235.656 113.545 235.419 113.878 235.113 114.274C234.812 114.664 234.377 115.012 233.809 115.319C233.246 115.62 232.485 115.77 231.527 115.77C230.338 115.77 229.27 115.489 228.324 114.926C227.385 114.364 226.64 113.545 226.09 112.472C225.547 111.398 225.275 110.094 225.275 108.56C225.275 107.051 225.54 105.738 226.071 104.619C226.602 103.494 227.34 102.625 228.286 102.011C229.232 101.391 230.325 101.081 231.565 101.081C232.524 101.081 233.284 101.241 233.847 101.56C234.416 101.874 234.85 102.232 235.151 102.634C235.458 103.031 235.694 103.357 235.86 103.612H236.091V101.273H238.277V116.422C238.277 117.688 237.989 118.717 237.414 119.509C236.845 120.308 236.078 120.893 235.113 121.264C234.154 121.641 233.086 121.83 231.91 121.83ZM231.833 113.737C232.741 113.737 233.508 113.529 234.135 113.114C234.761 112.699 235.237 112.101 235.563 111.321C235.889 110.541 236.052 109.608 236.052 108.521C236.052 107.46 235.892 106.524 235.573 105.712C235.253 104.9 234.78 104.264 234.154 103.804C233.527 103.344 232.754 103.114 231.833 103.114C230.875 103.114 230.076 103.357 229.436 103.842C228.804 104.328 228.327 104.98 228.008 105.798C227.695 106.616 227.538 107.524 227.538 108.521C227.538 109.544 227.698 110.449 228.017 111.235C228.343 112.015 228.823 112.628 229.456 113.076C230.095 113.517 230.887 113.737 231.833 113.737Z" />
    <style>
        #icon {
            fill: black;
        }

        @media (prefers-color-scheme: dark) {
            #icon {
                fill: white;
            }
        }
    </style>
</svg>
